<?xml version="1.0" encoding="UTF-8"?>
<svg xmlns="http://www.w3.org/2000/svg" xmlns:xlink="http://www.w3.org/1999/xlink" width="23pt" height="21pt" viewBox="0 0 23 21" version="1.1">
<g id="surface1">
<path style=" stroke:none;fill-rule:evenodd;fill:rgb(1.568627%,1.568627%,1.568627%);fill-opacity:1;" d="M 2.609375 0.015625 C 1.839844 0.121094 1.421875 0.507812 1.339844 1.183594 C 1.332031 1.253906 1.328125 2.546875 1.328125 5.171875 C 1.328125 9.304688 1.328125 9.15625 1.269531 9.402344 C 1.121094 10.019531 0.585938 10.496094 0.0429688 10.496094 C -0.0351562 10.496094 0.0078125 10.511719 0.121094 10.53125 C 0.675781 10.613281 1.113281 11.015625 1.265625 11.585938 C 1.332031 11.824219 1.328125 11.621094 1.328125 15.839844 C 1.328125 18.4375 1.332031 19.761719 1.339844 19.828125 C 1.414062 20.445312 1.78125 20.828125 2.433594 20.964844 C 2.640625 21.007812 2.777344 21.011719 3.511719 21.011719 L 4.222656 21.011719 L 4.222656 20.304688 L 3.878906 20.296875 C 2.960938 20.28125 2.746094 20.082031 2.703125 19.210938 C 2.695312 19.09375 2.691406 17.511719 2.691406 15.519531 C 2.691406 13.144531 2.6875 12.007812 2.679688 11.941406 C 2.585938 11.246094 2.09375 10.675781 1.460938 10.535156 C 1.324219 10.507812 1.324219 10.507812 1.449219 10.476562 C 2.070312 10.328125 2.496094 9.878906 2.660156 9.199219 L 2.683594 9.089844 L 2.691406 5.402344 C 2.699219 1.601562 2.699219 1.652344 2.742188 1.417969 C 2.847656 0.875 3.132812 0.710938 3.957031 0.707031 L 4.222656 0.707031 L 4.222656 0 L 3.472656 0 C 2.945312 0.00390625 2.6875 0.0078125 2.609375 0.015625 M 18.777344 0.355469 L 18.777344 0.714844 L 18.90625 0.707031 C 19.691406 0.660156 20.09375 0.84375 20.222656 1.308594 C 20.296875 1.566406 20.289062 1.292969 20.296875 5.359375 C 20.304688 9.496094 20.296875 9.109375 20.390625 9.394531 C 20.570312 9.953125 21.011719 10.363281 21.558594 10.480469 C 21.671875 10.503906 21.671875 10.507812 21.558594 10.53125 C 20.960938 10.644531 20.480469 11.148438 20.328125 11.832031 L 20.304688 11.945312 L 20.296875 15.660156 C 20.292969 18.332031 20.285156 19.394531 20.277344 19.453125 C 20.171875 20.125 19.953125 20.285156 19.117188 20.296875 L 18.777344 20.304688 L 18.777344 21.015625 L 19.558594 21.007812 C 20.402344 21.003906 20.429688 21.003906 20.683594 20.933594 C 21.152344 20.808594 21.46875 20.519531 21.597656 20.101562 C 21.664062 19.878906 21.660156 20.117188 21.660156 15.894531 C 21.660156 12.011719 21.664062 11.886719 21.703125 11.683594 C 21.820312 11.078125 22.269531 10.628906 22.847656 10.535156 C 22.992188 10.511719 23.019531 10.503906 22.972656 10.496094 C 22.222656 10.417969 21.75 9.914062 21.671875 9.109375 C 21.664062 9.027344 21.660156 7.746094 21.660156 5.105469 C 21.660156 2.597656 21.65625 1.195312 21.648438 1.144531 C 21.558594 0.488281 21.105469 0.0976562 20.339844 0.0117188 C 20.273438 0.00390625 19.9375 0 19.503906 0 L 18.777344 0 L 18.777344 0.355469 M 9.382812 4.164062 C 8.230469 4.242188 7.328125 4.855469 6.757812 5.945312 C 6.070312 7.265625 6.140625 9.109375 6.925781 10.40625 L 6.992188 10.515625 L 6.949219 10.578125 C 6.15625 11.726562 6.058594 13.6875 6.730469 15.023438 C 7.203125 15.964844 7.957031 16.578125 8.882812 16.773438 C 9.296875 16.859375 8.824219 16.851562 14.03125 16.847656 L 16.703125 16.84375 L 16.703125 14.082031 L 13.300781 14.082031 L 9.898438 14.078125 L 9.789062 14.039062 C 9.382812 13.890625 9.148438 13.5 9.148438 12.976562 C 9.148438 12.507812 9.351562 12.09375 9.671875 11.917969 L 9.738281 11.878906 L 16.703125 11.878906 L 16.703125 9.121094 L 9.898438 9.113281 L 9.8125 9.085938 C 8.96875 8.816406 8.910156 7.304688 9.730469 6.941406 C 9.898438 6.863281 9.609375 6.871094 13.335938 6.871094 L 16.703125 6.871094 L 16.703125 4.171875 L 14.015625 4.164062 C 11.394531 4.15625 9.496094 4.15625 9.382812 4.164062 "/>
</g>
</svg>
